<?xml version="1.0" encoding="utf-8" standalone="no"?>
<!DOCTYPE svg PUBLIC "-//W3C//DTD SVG 1.1//EN"
  "http://www.w3.org/Graphics/SVG/1.1/DTD/svg11.dtd">
<svg xmlns:xlink="http://www.w3.org/1999/xlink" width="416.23636pt" height="568.8pt" viewBox="0 0 416.23636 568.8" xmlns="http://www.w3.org/2000/svg" version="1.1">
 <metadata>
  <rdf:RDF xmlns:dc="http://purl.org/dc/elements/1.1/" xmlns:cc="http://creativecommons.org/ns#" xmlns:rdf="http://www.w3.org/1999/02/22-rdf-syntax-ns#">
   <cc:Work>
    <dc:type rdf:resource="http://purl.org/dc/dcmitype/StillImage"/>
    <dc:date>2026-01-16T16:17:05.851085</dc:date>
    <dc:format>image/svg+xml</dc:format>
    <dc:creator>
     <cc:Agent>
      <dc:title>Matplotlib v3.10.6, https://matplotlib.org/</dc:title>
     </cc:Agent>
    </dc:creator>
   </cc:Work>
  </rdf:RDF>
 </metadata>
 <defs>
  <style type="text/css">*{stroke-linejoin: round; stroke-linecap: butt}</style>
 </defs>
 <g id="figure_1">
  <g id="patch_1">
   <path d="M -0 568.8 
L 416.23636 568.8 
L 416.23636 0 
L -0 0 
z
" style="fill: #ffffff"/>
  </g>
  <g id="axes_1">
   <g id="patch_2">
    <path d="M 350.651305 536.4 
L 390.771071 531.000292 
L 365.934871 489.266575 
L 218.44437 298.048904 
L 249.162375 371.295399 
z
" clip-path="url(#p4703ec6f9e)" style="fill: #fd79a8; opacity: 0.2; stroke: #fd79a8; stroke-linejoin: miter"/>
   </g>
   <g id="patch_3">
    <path d="M 193.038379 122.171518 
L 49.65353 267.935164 
L 49.849868 268.842059 
L 63.131207 264.318481 
L 157.492152 210.110468 
z
" clip-path="url(#p4703ec6f9e)" style="fill: #1a253a; opacity: 0.2; stroke: #1a253a; stroke-linejoin: miter"/>
   </g>
   <g id="patch_4">
    <path d="M 245.027936 135.144297 
L 193.038379 122.171518 
L 218.44437 298.048904 
L 257.933581 303.942222 
z
" clip-path="url(#p4703ec6f9e)" style="fill: #2ecc71; opacity: 0.35; stroke: #2ecc71; stroke-linejoin: miter"/>
   </g>
   <g id="patch_5">
    <path d="M 189.314028 32.4 
L 183.586699 76.724687 
L 191.750574 78.965671 
L 243.08666 63.556972 
L 217.595968 40.918233 
z
" clip-path="url(#p4703ec6f9e)" style="fill: #e74c3c; opacity: 0.35; stroke: #e74c3c; stroke-linejoin: miter"/>
   </g>
   <g id="patch_6">
    <path d="M 126.423711 380.671836 
L 25.465289 536.396274 
L 58.633638 533.747816 
L 257.933581 303.942222 
z
" clip-path="url(#p4703ec6f9e)" style="fill: #9b59b6; opacity: 0.35; stroke: #9b59b6; stroke-linejoin: miter"/>
   </g>
   <g id="patch_7">
    <path d="M 245.027936 135.144297 
L 305.848356 234.750763 
L 337.922698 273.428318 
L 357.11957 289.236518 
L 368.635189 290.248308 
L 367.848632 285.639704 
z
" clip-path="url(#p4703ec6f9e)" style="fill: #3498db; opacity: 0.35; stroke: #3498db; stroke-linejoin: miter"/>
   </g>
   <g id="patch_8">
    <path d="M 305.969928 140.684478 
L 253.980371 127.711699 
L 279.386362 303.589086 
L 318.875573 309.482403 
z
" clip-path="url(#p4703ec6f9e)" style="fill: #2ecc71; opacity: 0.18; stroke: #2ecc71; stroke-linejoin: miter"/>
   </g>
   <g id="line2d_1">
    <path d="M 305.969928 140.684478 
L 253.980371 127.711699 
L 279.386362 303.589086 
L 318.875573 309.482403 
L 305.969928 140.684478 
" clip-path="url(#p4703ec6f9e)" style="fill: none; stroke-dasharray: 8,6; stroke-dashoffset: 0; stroke: #2ecc71; stroke-opacity: 0.5; stroke-width: 2"/>
   </g>
   <g id="line2d_2">
    <path d="M 187.678317 55.61298 
L 203.282222 49.371152 
" clip-path="url(#p4703ec6f9e)" style="fill: none; stroke: #444444; stroke-width: 1.5; stroke-linecap: square"/>
   </g>
   <g id="line2d_3">
    <path d="M 203.282222 49.371152 
L 210.457439 45.13386 
" clip-path="url(#p4703ec6f9e)" style="fill: none; stroke: #444444; stroke-width: 1.5; stroke-linecap: square"/>
   </g>
   <g id="line2d_4">
    <path d="M 210.457439 45.13386 
L 217.595968 40.918233 
" clip-path="url(#p4703ec6f9e)" style="fill: none; stroke: #444444; stroke-width: 1.5; stroke-linecap: square"/>
   </g>
   <g id="line2d_5">
    <path d="M 217.595968 40.918233 
L 243.08666 63.556972 
" clip-path="url(#p4703ec6f9e)" style="fill: none; stroke: #444444; stroke-width: 1.5; stroke-linecap: square"/>
   </g>
   <g id="line2d_6">
    <path d="M 187.678317 55.61298 
L 191.111832 45.796629 
" clip-path="url(#p4703ec6f9e)" style="fill: none; stroke: #444444; stroke-width: 1.5; stroke-linecap: square"/>
   </g>
   <g id="line2d_7">
    <path d="M 191.111832 45.796629 
L 190.214884 39.112873 
" clip-path="url(#p4703ec6f9e)" style="fill: none; stroke: #444444; stroke-width: 1.5; stroke-linecap: square"/>
   </g>
   <g id="line2d_8">
    <path d="M 190.214884 39.112873 
L 189.314028 32.4 
" clip-path="url(#p4703ec6f9e)" style="fill: none; stroke: #444444; stroke-width: 1.5; stroke-linecap: square"/>
   </g>
   <g id="line2d_9">
    <path d="M 189.314028 32.4 
L 195.09798 49.534256 
" clip-path="url(#p4703ec6f9e)" style="fill: none; stroke: #444444; stroke-width: 1.5; stroke-linecap: square"/>
   </g>
   <g id="line2d_10">
    <path d="M 191.750574 78.965671 
L 183.586699 76.724687 
" clip-path="url(#p4703ec6f9e)" style="fill: none; stroke: #444444; stroke-width: 1.5; stroke-linecap: square"/>
   </g>
   <g id="line2d_11">
    <path d="M 245.027936 135.144297 
L 193.038379 122.171518 
" clip-path="url(#p4703ec6f9e)" style="fill: none; stroke: #444444; stroke-width: 1.5; stroke-linecap: square"/>
   </g>
   <g id="line2d_12">
    <path d="M 245.027936 135.144297 
L 305.848356 234.750763 
" clip-path="url(#p4703ec6f9e)" style="fill: none; stroke: #444444; stroke-width: 1.5; stroke-linecap: square"/>
   </g>
   <g id="line2d_13">
    <path d="M 305.848356 234.750763 
L 337.922698 273.428318 
" clip-path="url(#p4703ec6f9e)" style="fill: none; stroke: #444444; stroke-width: 1.5; stroke-linecap: square"/>
   </g>
   <g id="line2d_14">
    <path d="M 337.922698 273.428318 
L 367.848632 285.639704 
" clip-path="url(#p4703ec6f9e)" style="fill: none; stroke: #444444; stroke-width: 1.5; stroke-linecap: square"/>
   </g>
   <g id="line2d_15">
    <path d="M 337.922698 273.428318 
L 368.635189 290.248308 
" clip-path="url(#p4703ec6f9e)" style="fill: none; stroke: #444444; stroke-width: 1.5; stroke-linecap: square"/>
   </g>
   <g id="line2d_16">
    <path d="M 337.922698 273.428318 
L 357.11957 289.236518 
" clip-path="url(#p4703ec6f9e)" style="fill: none; stroke: #444444; stroke-width: 1.5; stroke-linecap: square"/>
   </g>
   <g id="line2d_17">
    <path d="M 367.848632 285.639704 
L 368.635189 290.248308 
" clip-path="url(#p4703ec6f9e)" style="fill: none; stroke: #444444; stroke-width: 1.5; stroke-linecap: square"/>
   </g>
   <g id="line2d_18">
    <path d="M 193.038379 122.171518 
L 157.492152 210.110468 
" clip-path="url(#p4703ec6f9e)" style="fill: none; stroke: #444444; stroke-width: 1.5; stroke-linecap: square"/>
   </g>
   <g id="line2d_19">
    <path d="M 157.492152 210.110468 
L 82.628869 252.418894 
" clip-path="url(#p4703ec6f9e)" style="fill: none; stroke: #444444; stroke-width: 1.5; stroke-linecap: square"/>
   </g>
   <g id="line2d_20">
    <path d="M 82.628869 252.418894 
L 63.131207 264.318481 
" clip-path="url(#p4703ec6f9e)" style="fill: none; stroke: #444444; stroke-width: 1.5; stroke-linecap: square"/>
   </g>
   <g id="line2d_21">
    <path d="M 82.628869 252.418894 
L 49.849868 268.842059 
" clip-path="url(#p4703ec6f9e)" style="fill: none; stroke: #444444; stroke-width: 1.5; stroke-linecap: square"/>
   </g>
   <g id="line2d_22">
    <path d="M 82.628869 252.418894 
L 49.65353 267.935164 
" clip-path="url(#p4703ec6f9e)" style="fill: none; stroke: #444444; stroke-width: 1.5; stroke-linecap: square"/>
   </g>
   <g id="line2d_23">
    <path d="M 63.131207 264.318481 
L 49.849868 268.842059 
" clip-path="url(#p4703ec6f9e)" style="fill: none; stroke: #444444; stroke-width: 1.5; stroke-linecap: square"/>
   </g>
   <g id="line2d_24">
    <path d="M 245.027936 135.144297 
L 257.933581 303.942222 
" clip-path="url(#p4703ec6f9e)" style="fill: none; stroke: #444444; stroke-width: 1.5; stroke-linecap: square"/>
   </g>
   <g id="line2d_25">
    <path d="M 193.038379 122.171518 
L 218.44437 298.048904 
" clip-path="url(#p4703ec6f9e)" style="fill: none; stroke: #444444; stroke-width: 1.5; stroke-linecap: square"/>
   </g>
   <g id="line2d_26">
    <path d="M 257.933581 303.942222 
L 218.44437 298.048904 
" clip-path="url(#p4703ec6f9e)" style="fill: none; stroke: #444444; stroke-width: 1.5; stroke-linecap: square"/>
   </g>
   <g id="line2d_27">
    <path d="M 257.933581 303.942222 
L 126.423711 380.671836 
" clip-path="url(#p4703ec6f9e)" style="fill: none; stroke: #444444; stroke-width: 1.5; stroke-linecap: square"/>
   </g>
   <g id="line2d_28">
    <path d="M 126.423711 380.671836 
L 71.909745 517.082292 
" clip-path="url(#p4703ec6f9e)" style="fill: none; stroke: #444444; stroke-width: 1.5; stroke-linecap: square"/>
   </g>
   <g id="line2d_29">
    <path d="M 71.909745 517.082292 
L 58.633638 533.747816 
" clip-path="url(#p4703ec6f9e)" style="fill: none; stroke: #444444; stroke-width: 1.5; stroke-linecap: square"/>
   </g>
   <g id="line2d_30">
    <path d="M 71.909745 517.082292 
L 25.465289 536.396274 
" clip-path="url(#p4703ec6f9e)" style="fill: none; stroke: #444444; stroke-width: 1.5; stroke-linecap: square"/>
   </g>
   <g id="line2d_31">
    <path d="M 58.633638 533.747816 
L 25.465289 536.396274 
" clip-path="url(#p4703ec6f9e)" style="fill: none; stroke: #444444; stroke-width: 1.5; stroke-linecap: square"/>
   </g>
   <g id="line2d_32">
    <path d="M 218.44437 298.048904 
L 249.162375 371.295399 
" clip-path="url(#p4703ec6f9e)" style="fill: none; stroke: #444444; stroke-width: 1.5; stroke-linecap: square"/>
   </g>
   <g id="line2d_33">
    <path d="M 249.162375 371.295399 
L 365.934871 489.266575 
" clip-path="url(#p4703ec6f9e)" style="fill: none; stroke: #444444; stroke-width: 1.5; stroke-linecap: square"/>
   </g>
   <g id="line2d_34">
    <path d="M 365.934871 489.266575 
L 390.771071 531.000292 
" clip-path="url(#p4703ec6f9e)" style="fill: none; stroke: #444444; stroke-width: 1.5; stroke-linecap: square"/>
   </g>
   <g id="line2d_35">
    <path d="M 365.934871 489.266575 
L 350.651305 536.4 
" clip-path="url(#p4703ec6f9e)" style="fill: none; stroke: #444444; stroke-width: 1.5; stroke-linecap: square"/>
   </g>
   <g id="line2d_36">
    <path d="M 390.771071 531.000292 
L 350.651305 536.4 
" clip-path="url(#p4703ec6f9e)" style="fill: none; stroke: #444444; stroke-width: 1.5; stroke-linecap: square"/>
   </g>
   <g id="line2d_37">
    <path d="M 350.651305 536.4 
L 390.771071 531.000292 
L 365.934871 489.266575 
L 218.44437 298.048904 
L 249.162375 371.295399 
L 350.651305 536.4 
" clip-path="url(#p4703ec6f9e)" style="fill: none; stroke-dasharray: 7.4,3.2; stroke-dashoffset: 0; stroke: #fd79a8; stroke-opacity: 0.9; stroke-width: 2"/>
   </g>
   <g id="line2d_38">
    <path d="M 193.038379 122.171518 
L 49.65353 267.935164 
L 49.849868 268.842059 
L 63.131207 264.318481 
L 157.492152 210.110468 
L 193.038379 122.171518 
" clip-path="url(#p4703ec6f9e)" style="fill: none; stroke-dasharray: 7.4,3.2; stroke-dashoffset: 0; stroke: #1a253a; stroke-opacity: 0.9; stroke-width: 2"/>
   </g>
   <g id="line2d_39">
    <path d="M 245.027936 135.144297 
L 193.038379 122.171518 
L 218.44437 298.048904 
L 257.933581 303.942222 
L 245.027936 135.144297 
" clip-path="url(#p4703ec6f9e)" style="fill: none; stroke-dasharray: 7.4,3.2; stroke-dashoffset: 0; stroke: #2ecc71; stroke-opacity: 0.9; stroke-width: 2"/>
   </g>
   <g id="line2d_40">
    <path d="M 189.314028 32.4 
L 183.586699 76.724687 
L 191.750574 78.965671 
L 243.08666 63.556972 
L 217.595968 40.918233 
L 189.314028 32.4 
" clip-path="url(#p4703ec6f9e)" style="fill: none; stroke-dasharray: 7.4,3.2; stroke-dashoffset: 0; stroke: #e74c3c; stroke-opacity: 0.9; stroke-width: 2"/>
   </g>
   <g id="line2d_41">
    <path d="M 126.423711 380.671836 
L 25.465289 536.396274 
L 58.633638 533.747816 
L 257.933581 303.942222 
L 126.423711 380.671836 
" clip-path="url(#p4703ec6f9e)" style="fill: none; stroke-dasharray: 7.4,3.2; stroke-dashoffset: 0; stroke: #9b59b6; stroke-opacity: 0.9; stroke-width: 2"/>
   </g>
   <g id="line2d_42">
    <path d="M 245.027936 135.144297 
L 305.848356 234.750763 
L 337.922698 273.428318 
L 357.11957 289.236518 
L 368.635189 290.248308 
L 367.848632 285.639704 
L 245.027936 135.144297 
" clip-path="url(#p4703ec6f9e)" style="fill: none; stroke-dasharray: 7.4,3.2; stroke-dashoffset: 0; stroke: #3498db; stroke-opacity: 0.9; stroke-width: 2"/>
   </g>
   <g id="PathCollection_1">
    <defs>
     <path id="mc4d2f76846" d="M 0 3.872983 
C 1.027127 3.872983 2.012324 3.464901 2.738613 2.738613 
C 3.464901 2.012324 3.872983 1.027127 3.872983 0 
C 3.872983 -1.027127 3.464901 -2.012324 2.738613 -2.738613 
C 2.012324 -3.464901 1.027127 -3.872983 0 -3.872983 
C -1.027127 -3.872983 -2.012324 -3.464901 -2.738613 -2.738613 
C -3.464901 -2.012324 -3.872983 -1.027127 -3.872983 0 
C -3.872983 1.027127 -3.464901 2.012324 -2.738613 2.738613 
C -2.012324 3.464901 -1.027127 3.872983 0 3.872983 
z
" style="stroke: #ffffff; stroke-width: 1.5"/>
    </defs>
    <g clip-path="url(#p4703ec6f9e)">
     <use xlink:href="#mc4d2f76846" x="187.678317" y="55.61298" style="fill: #e74c3c; stroke: #ffffff; stroke-width: 1.5"/>
    </g>
   </g>
   <g id="PathCollection_2">
    <g clip-path="url(#p4703ec6f9e)">
     <use xlink:href="#mc4d2f76846" x="203.282222" y="49.371152" style="fill: #e74c3c; stroke: #ffffff; stroke-width: 1.5"/>
    </g>
   </g>
   <g id="PathCollection_3">
    <g clip-path="url(#p4703ec6f9e)">
     <use xlink:href="#mc4d2f76846" x="210.457439" y="45.13386" style="fill: #e74c3c; stroke: #ffffff; stroke-width: 1.5"/>
    </g>
   </g>
   <g id="PathCollection_4">
    <g clip-path="url(#p4703ec6f9e)">
     <use xlink:href="#mc4d2f76846" x="217.595968" y="40.918233" style="fill: #e74c3c; stroke: #ffffff; stroke-width: 1.5"/>
    </g>
   </g>
   <g id="PathCollection_5">
    <g clip-path="url(#p4703ec6f9e)">
     <use xlink:href="#mc4d2f76846" x="191.111832" y="45.796629" style="fill: #e74c3c; stroke: #ffffff; stroke-width: 1.5"/>
    </g>
   </g>
   <g id="PathCollection_6">
    <g clip-path="url(#p4703ec6f9e)">
     <use xlink:href="#mc4d2f76846" x="190.214884" y="39.112873" style="fill: #e74c3c; stroke: #ffffff; stroke-width: 1.5"/>
    </g>
   </g>
   <g id="PathCollection_7">
    <g clip-path="url(#p4703ec6f9e)">
     <use xlink:href="#mc4d2f76846" x="189.314028" y="32.4" style="fill: #e74c3c; stroke: #ffffff; stroke-width: 1.5"/>
    </g>
   </g>
   <g id="PathCollection_8">
    <g clip-path="url(#p4703ec6f9e)">
     <use xlink:href="#mc4d2f76846" x="243.08666" y="63.556972" style="fill: #e74c3c; stroke: #ffffff; stroke-width: 1.5"/>
    </g>
   </g>
   <g id="PathCollection_9">
    <g clip-path="url(#p4703ec6f9e)">
     <use xlink:href="#mc4d2f76846" x="195.09798" y="49.534256" style="fill: #e74c3c; stroke: #ffffff; stroke-width: 1.5"/>
    </g>
   </g>
   <g id="PathCollection_10">
    <g clip-path="url(#p4703ec6f9e)">
     <use xlink:href="#mc4d2f76846" x="191.750574" y="78.965671" style="fill: #e74c3c; stroke: #ffffff; stroke-width: 1.5"/>
    </g>
   </g>
   <g id="PathCollection_11">
    <g clip-path="url(#p4703ec6f9e)">
     <use xlink:href="#mc4d2f76846" x="183.586699" y="76.724687" style="fill: #e74c3c; stroke: #ffffff; stroke-width: 1.5"/>
    </g>
   </g>
   <g id="PathCollection_12">
    <defs>
     <path id="m5e366eb21b" d="M 0 3.872983 
C 1.027127 3.872983 2.012324 3.464901 2.738613 2.738613 
C 3.464901 2.012324 3.872983 1.027127 3.872983 0 
C 3.872983 -1.027127 3.464901 -2.012324 2.738613 -2.738613 
C 2.012324 -3.464901 1.027127 -3.872983 0 -3.872983 
C -1.027127 -3.872983 -2.012324 -3.464901 -2.738613 -2.738613 
C -3.464901 -2.012324 -3.872983 -1.027127 -3.872983 0 
C -3.872983 1.027127 -3.464901 2.012324 -2.738613 2.738613 
C -2.012324 3.464901 -1.027127 3.872983 0 3.872983 
z
" style="stroke: #ffffff; stroke-width: 1.5"/>
    </defs>
    <g clip-path="url(#p4703ec6f9e)">
     <use xlink:href="#m5e366eb21b" x="245.027936" y="135.144297" style="fill: #2ecc71; stroke: #ffffff; stroke-width: 1.5"/>
    </g>
   </g>
   <g id="PathCollection_13">
    <g clip-path="url(#p4703ec6f9e)">
     <use xlink:href="#m5e366eb21b" x="193.038379" y="122.171518" style="fill: #2ecc71; stroke: #ffffff; stroke-width: 1.5"/>
    </g>
   </g>
   <g id="PathCollection_14">
    <defs>
     <path id="made026c3aa" d="M 0 3.872983 
C 1.027127 3.872983 2.012324 3.464901 2.738613 2.738613 
C 3.464901 2.012324 3.872983 1.027127 3.872983 0 
C 3.872983 -1.027127 3.464901 -2.012324 2.738613 -2.738613 
C 2.012324 -3.464901 1.027127 -3.872983 0 -3.872983 
C -1.027127 -3.872983 -2.012324 -3.464901 -2.738613 -2.738613 
C -3.464901 -2.012324 -3.872983 -1.027127 -3.872983 0 
C -3.872983 1.027127 -3.464901 2.012324 -2.738613 2.738613 
C -2.012324 3.464901 -1.027127 3.872983 0 3.872983 
z
" style="stroke: #ffffff; stroke-width: 1.5"/>
    </defs>
    <g clip-path="url(#p4703ec6f9e)">
     <use xlink:href="#made026c3aa" x="305.848356" y="234.750763" style="fill: #3498db; stroke: #ffffff; stroke-width: 1.5"/>
    </g>
   </g>
   <g id="PathCollection_15">
    <defs>
     <path id="mb52cdb227c" d="M 0 3.872983 
C 1.027127 3.872983 2.012324 3.464901 2.738613 2.738613 
C 3.464901 2.012324 3.872983 1.027127 3.872983 0 
C 3.872983 -1.027127 3.464901 -2.012324 2.738613 -2.738613 
C 2.012324 -3.464901 1.027127 -3.872983 0 -3.872983 
C -1.027127 -3.872983 -2.012324 -3.464901 -2.738613 -2.738613 
C -3.464901 -2.012324 -3.872983 -1.027127 -3.872983 0 
C -3.872983 1.027127 -3.464901 2.012324 -2.738613 2.738613 
C -2.012324 3.464901 -1.027127 3.872983 0 3.872983 
z
" style="stroke: #ffffff; stroke-width: 1.5"/>
    </defs>
    <g clip-path="url(#p4703ec6f9e)">
     <use xlink:href="#mb52cdb227c" x="157.492152" y="210.110468" style="fill: #1a253a; stroke: #ffffff; stroke-width: 1.5"/>
    </g>
   </g>
   <g id="PathCollection_16">
    <g clip-path="url(#p4703ec6f9e)">
     <use xlink:href="#made026c3aa" x="337.922698" y="273.428318" style="fill: #3498db; stroke: #ffffff; stroke-width: 1.5"/>
    </g>
   </g>
   <g id="PathCollection_17">
    <g clip-path="url(#p4703ec6f9e)">
     <use xlink:href="#mb52cdb227c" x="82.628869" y="252.418894" style="fill: #1a253a; stroke: #ffffff; stroke-width: 1.5"/>
    </g>
   </g>
   <g id="PathCollection_18">
    <g clip-path="url(#p4703ec6f9e)">
     <use xlink:href="#made026c3aa" x="367.848632" y="285.639704" style="fill: #3498db; stroke: #ffffff; stroke-width: 1.5"/>
    </g>
   </g>
   <g id="PathCollection_19">
    <g clip-path="url(#p4703ec6f9e)">
     <use xlink:href="#mb52cdb227c" x="63.131207" y="264.318481" style="fill: #1a253a; stroke: #ffffff; stroke-width: 1.5"/>
    </g>
   </g>
   <g id="PathCollection_20">
    <g clip-path="url(#p4703ec6f9e)">
     <use xlink:href="#made026c3aa" x="368.635189" y="290.248308" style="fill: #3498db; stroke: #ffffff; stroke-width: 1.5"/>
    </g>
   </g>
   <g id="PathCollection_21">
    <g clip-path="url(#p4703ec6f9e)">
     <use xlink:href="#mb52cdb227c" x="49.849868" y="268.842059" style="fill: #1a253a; stroke: #ffffff; stroke-width: 1.5"/>
    </g>
   </g>
   <g id="PathCollection_22">
    <g clip-path="url(#p4703ec6f9e)">
     <use xlink:href="#made026c3aa" x="357.11957" y="289.236518" style="fill: #3498db; stroke: #ffffff; stroke-width: 1.5"/>
    </g>
   </g>
   <g id="PathCollection_23">
    <g clip-path="url(#p4703ec6f9e)">
     <use xlink:href="#mb52cdb227c" x="49.65353" y="267.935164" style="fill: #1a253a; stroke: #ffffff; stroke-width: 1.5"/>
    </g>
   </g>
   <g id="PathCollection_24">
    <g clip-path="url(#p4703ec6f9e)">
     <use xlink:href="#m5e366eb21b" x="257.933581" y="303.942222" style="fill: #2ecc71; stroke: #ffffff; stroke-width: 1.5"/>
    </g>
   </g>
   <g id="PathCollection_25">
    <g clip-path="url(#p4703ec6f9e)">
     <use xlink:href="#m5e366eb21b" x="218.44437" y="298.048904" style="fill: #2ecc71; stroke: #ffffff; stroke-width: 1.5"/>
    </g>
   </g>
   <g id="PathCollection_26">
    <defs>
     <path id="m6210f32880" d="M 0 3.872983 
C 1.027127 3.872983 2.012324 3.464901 2.738613 2.738613 
C 3.464901 2.012324 3.872983 1.027127 3.872983 0 
C 3.872983 -1.027127 3.464901 -2.012324 2.738613 -2.738613 
C 2.012324 -3.464901 1.027127 -3.872983 0 -3.872983 
C -1.027127 -3.872983 -2.012324 -3.464901 -2.738613 -2.738613 
C -3.464901 -2.012324 -3.872983 -1.027127 -3.872983 0 
C -3.872983 1.027127 -3.464901 2.012324 -2.738613 2.738613 
C -2.012324 3.464901 -1.027127 3.872983 0 3.872983 
z
" style="stroke: #ffffff; stroke-width: 1.5"/>
    </defs>
    <g clip-path="url(#p4703ec6f9e)">
     <use xlink:href="#m6210f32880" x="126.423711" y="380.671836" style="fill: #9b59b6; stroke: #ffffff; stroke-width: 1.5"/>
    </g>
   </g>
   <g id="PathCollection_27">
    <defs>
     <path id="m8e15e01c54" d="M 0 3.872983 
C 1.027127 3.872983 2.012324 3.464901 2.738613 2.738613 
C 3.464901 2.012324 3.872983 1.027127 3.872983 0 
C 3.872983 -1.027127 3.464901 -2.012324 2.738613 -2.738613 
C 2.012324 -3.464901 1.027127 -3.872983 0 -3.872983 
C -1.027127 -3.872983 -2.012324 -3.464901 -2.738613 -2.738613 
C -3.464901 -2.012324 -3.872983 -1.027127 -3.872983 0 
C -3.872983 1.027127 -3.464901 2.012324 -2.738613 2.738613 
C -2.012324 3.464901 -1.027127 3.872983 0 3.872983 
z
" style="stroke: #ffffff; stroke-width: 1.5"/>
    </defs>
    <g clip-path="url(#p4703ec6f9e)">
     <use xlink:href="#m8e15e01c54" x="249.162375" y="371.295399" style="fill: #fd79a8; stroke: #ffffff; stroke-width: 1.5"/>
    </g>
   </g>
   <g id="PathCollection_28">
    <g clip-path="url(#p4703ec6f9e)">
     <use xlink:href="#m6210f32880" x="71.909745" y="517.082292" style="fill: #9b59b6; stroke: #ffffff; stroke-width: 1.5"/>
    </g>
   </g>
   <g id="PathCollection_29">
    <g clip-path="url(#p4703ec6f9e)">
     <use xlink:href="#m8e15e01c54" x="365.934871" y="489.266575" style="fill: #fd79a8; stroke: #ffffff; stroke-width: 1.5"/>
    </g>
   </g>
   <g id="PathCollection_30">
    <g clip-path="url(#p4703ec6f9e)">
     <use xlink:href="#m6210f32880" x="58.633638" y="533.747816" style="fill: #9b59b6; stroke: #ffffff; stroke-width: 1.5"/>
    </g>
   </g>
   <g id="PathCollection_31">
    <g clip-path="url(#p4703ec6f9e)">
     <use xlink:href="#m8e15e01c54" x="390.771071" y="531.000292" style="fill: #fd79a8; stroke: #ffffff; stroke-width: 1.5"/>
    </g>
   </g>
   <g id="PathCollection_32">
    <g clip-path="url(#p4703ec6f9e)">
     <use xlink:href="#m6210f32880" x="25.465289" y="536.396274" style="fill: #9b59b6; stroke: #ffffff; stroke-width: 1.5"/>
    </g>
   </g>
   <g id="PathCollection_33">
    <g clip-path="url(#p4703ec6f9e)">
     <use xlink:href="#m8e15e01c54" x="350.651305" y="536.4" style="fill: #fd79a8; stroke: #ffffff; stroke-width: 1.5"/>
    </g>
   </g>
   <g id="patch_9">
    <path d="M 232.827939 215.210087 
Q 259.082169 217.596836 287.563284 220.186028 
" style="fill: none; stroke: #444444; stroke-width: 2; stroke-linecap: round"/>
    <path d="M 236.630441 217.564017 
L 232.827939 215.210087 
L 236.992584 213.580444 
" style="fill: none; stroke: #444444; stroke-width: 2; stroke-linecap: round"/>
   </g>
   <g id="text_1">
    <!-- $\Delta t$ -->
    <g style="fill: #444444" transform="translate(264.622243 212.056645) scale(0.12 -0.12)">
     <defs>
      <path id="DejaVuSans-394" d="M 2188 4044 
L 906 525 
L 3472 525 
L 2188 4044 
z
M 50 0 
L 1831 4666 
L 2547 4666 
L 4325 0 
L 50 0 
z
" transform="scale(0.015625)"/>
      <path id="DejaVuSans-Oblique-74" d="M 2706 3500 
L 2619 3053 
L 1472 3053 
L 1100 1153 
Q 1081 1047 1072 975 
Q 1063 903 1063 863 
Q 1063 663 1183 572 
Q 1303 481 1569 481 
L 2150 481 
L 2053 0 
L 1503 0 
Q 991 0 739 200 
Q 488 400 488 806 
Q 488 878 497 964 
Q 506 1050 525 1153 
L 897 3053 
L 409 3053 
L 500 3500 
L 978 3500 
L 1172 4494 
L 1747 4494 
L 1556 3500 
L 2706 3500 
z
" transform="scale(0.015625)"/>
     </defs>
     <use xlink:href="#DejaVuSans-394" transform="translate(0 0.09375)"/>
     <use xlink:href="#DejaVuSans-Oblique-74" transform="translate(68.408203 0.09375)"/>
    </g>
   </g>
   <g id="text_2">
    <!-- Head -->
    <g style="fill: #e74c3c" transform="translate(215.379222 22.371893) scale(0.12 -0.12)">
     <defs>
      <path id="DejaVuSans-Bold-48" d="M 588 4666 
L 1791 4666 
L 1791 2888 
L 3566 2888 
L 3566 4666 
L 4769 4666 
L 4769 0 
L 3566 0 
L 3566 1978 
L 1791 1978 
L 1791 0 
L 588 0 
L 588 4666 
z
" transform="scale(0.015625)"/>
      <path id="DejaVuSans-Bold-65" d="M 4031 1759 
L 4031 1441 
L 1416 1441 
Q 1456 1047 1700 850 
Q 1944 653 2381 653 
Q 2734 653 3104 758 
Q 3475 863 3866 1075 
L 3866 213 
Q 3469 63 3072 -14 
Q 2675 -91 2278 -91 
Q 1328 -91 801 392 
Q 275 875 275 1747 
Q 275 2603 792 3093 
Q 1309 3584 2216 3584 
Q 3041 3584 3536 3087 
Q 4031 2591 4031 1759 
z
M 2881 2131 
Q 2881 2450 2695 2645 
Q 2509 2841 2209 2841 
Q 1884 2841 1681 2658 
Q 1478 2475 1428 2131 
L 2881 2131 
z
" transform="scale(0.015625)"/>
      <path id="DejaVuSans-Bold-61" d="M 2106 1575 
Q 1756 1575 1579 1456 
Q 1403 1338 1403 1106 
Q 1403 894 1545 773 
Q 1688 653 1941 653 
Q 2256 653 2472 879 
Q 2688 1106 2688 1447 
L 2688 1575 
L 2106 1575 
z
M 3816 1997 
L 3816 0 
L 2688 0 
L 2688 519 
Q 2463 200 2181 54 
Q 1900 -91 1497 -91 
Q 953 -91 614 226 
Q 275 544 275 1050 
Q 275 1666 698 1953 
Q 1122 2241 2028 2241 
L 2688 2241 
L 2688 2328 
Q 2688 2594 2478 2717 
Q 2269 2841 1825 2841 
Q 1466 2841 1156 2769 
Q 847 2697 581 2553 
L 581 3406 
Q 941 3494 1303 3539 
Q 1666 3584 2028 3584 
Q 2975 3584 3395 3211 
Q 3816 2838 3816 1997 
z
" transform="scale(0.015625)"/>
      <path id="DejaVuSans-Bold-64" d="M 2919 2988 
L 2919 4863 
L 4044 4863 
L 4044 0 
L 2919 0 
L 2919 506 
Q 2688 197 2409 53 
Q 2131 -91 1766 -91 
Q 1119 -91 703 423 
Q 288 938 288 1747 
Q 288 2556 703 3070 
Q 1119 3584 1766 3584 
Q 2128 3584 2408 3439 
Q 2688 3294 2919 2988 
z
M 2181 722 
Q 2541 722 2730 984 
Q 2919 1247 2919 1747 
Q 2919 2247 2730 2509 
Q 2541 2772 2181 2772 
Q 1825 2772 1636 2509 
Q 1447 2247 1447 1747 
Q 1447 1247 1636 984 
Q 1825 722 2181 722 
z
" transform="scale(0.015625)"/>
     </defs>
     <use xlink:href="#DejaVuSans-Bold-48"/>
     <use xlink:href="#DejaVuSans-Bold-65" transform="translate(83.691406 0)"/>
     <use xlink:href="#DejaVuSans-Bold-61" transform="translate(151.513672 0)"/>
     <use xlink:href="#DejaVuSans-Bold-64" transform="translate(218.994141 0)"/>
    </g>
   </g>
   <g id="text_3">
    <!-- Trunk -->
    <g style="fill: #2ecc71" transform="translate(248.44019 122.171518) scale(0.12 -0.12)">
     <defs>
      <path id="DejaVuSans-Bold-54" d="M 31 4666 
L 4331 4666 
L 4331 3756 
L 2784 3756 
L 2784 0 
L 1581 0 
L 1581 3756 
L 31 3756 
L 31 4666 
z
" transform="scale(0.015625)"/>
      <path id="DejaVuSans-Bold-72" d="M 3138 2547 
Q 2991 2616 2845 2648 
Q 2700 2681 2553 2681 
Q 2122 2681 1889 2404 
Q 1656 2128 1656 1613 
L 1656 0 
L 538 0 
L 538 3500 
L 1656 3500 
L 1656 2925 
Q 1872 3269 2151 3426 
Q 2431 3584 2822 3584 
Q 2878 3584 2943 3579 
Q 3009 3575 3134 3559 
L 3138 2547 
z
" transform="scale(0.015625)"/>
      <path id="DejaVuSans-Bold-75" d="M 500 1363 
L 500 3500 
L 1625 3500 
L 1625 3150 
Q 1625 2866 1622 2436 
Q 1619 2006 1619 1863 
Q 1619 1441 1641 1255 
Q 1663 1069 1716 984 
Q 1784 875 1895 815 
Q 2006 756 2150 756 
Q 2500 756 2700 1025 
Q 2900 1294 2900 1772 
L 2900 3500 
L 4019 3500 
L 4019 0 
L 2900 0 
L 2900 506 
Q 2647 200 2364 54 
Q 2081 -91 1741 -91 
Q 1134 -91 817 281 
Q 500 653 500 1363 
z
" transform="scale(0.015625)"/>
      <path id="DejaVuSans-Bold-6e" d="M 4056 2131 
L 4056 0 
L 2931 0 
L 2931 347 
L 2931 1631 
Q 2931 2084 2911 2256 
Q 2891 2428 2841 2509 
Q 2775 2619 2662 2680 
Q 2550 2741 2406 2741 
Q 2056 2741 1856 2470 
Q 1656 2200 1656 1722 
L 1656 0 
L 538 0 
L 538 3500 
L 1656 3500 
L 1656 2988 
Q 1909 3294 2193 3439 
Q 2478 3584 2822 3584 
Q 3428 3584 3742 3212 
Q 4056 2841 4056 2131 
z
" transform="scale(0.015625)"/>
      <path id="DejaVuSans-Bold-6b" d="M 538 4863 
L 1656 4863 
L 1656 2216 
L 2944 3500 
L 4244 3500 
L 2534 1894 
L 4378 0 
L 3022 0 
L 1656 1459 
L 1656 0 
L 538 0 
L 538 4863 
z
" transform="scale(0.015625)"/>
     </defs>
     <use xlink:href="#DejaVuSans-Bold-54"/>
     <use xlink:href="#DejaVuSans-Bold-72" transform="translate(57.212891 0)"/>
     <use xlink:href="#DejaVuSans-Bold-75" transform="translate(106.529297 0)"/>
     <use xlink:href="#DejaVuSans-Bold-6e" transform="translate(177.720703 0)"/>
     <use xlink:href="#DejaVuSans-Bold-6b" transform="translate(248.912109 0)"/>
    </g>
   </g>
   <g id="text_4">
    <!-- Right Arm -->
    <g style="fill: #1a253a" transform="translate(110.329775 252.418894) scale(0.12 -0.12)">
     <defs>
      <path id="DejaVuSans-Bold-52" d="M 2297 2597 
Q 2675 2597 2839 2737 
Q 3003 2878 3003 3200 
Q 3003 3519 2839 3656 
Q 2675 3794 2297 3794 
L 1791 3794 
L 1791 2597 
L 2297 2597 
z
M 1791 1766 
L 1791 0 
L 588 0 
L 588 4666 
L 2425 4666 
Q 3347 4666 3776 4356 
Q 4206 4047 4206 3378 
Q 4206 2916 3982 2619 
Q 3759 2322 3309 2181 
Q 3556 2125 3751 1926 
Q 3947 1728 4147 1325 
L 4800 0 
L 3519 0 
L 2950 1159 
Q 2778 1509 2601 1637 
Q 2425 1766 2131 1766 
L 1791 1766 
z
" transform="scale(0.015625)"/>
      <path id="DejaVuSans-Bold-69" d="M 538 3500 
L 1656 3500 
L 1656 0 
L 538 0 
L 538 3500 
z
M 538 4863 
L 1656 4863 
L 1656 3950 
L 538 3950 
L 538 4863 
z
" transform="scale(0.015625)"/>
      <path id="DejaVuSans-Bold-67" d="M 2919 594 
Q 2688 288 2409 144 
Q 2131 0 1766 0 
Q 1125 0 706 504 
Q 288 1009 288 1791 
Q 288 2575 706 3076 
Q 1125 3578 1766 3578 
Q 2131 3578 2409 3434 
Q 2688 3291 2919 2981 
L 2919 3500 
L 4044 3500 
L 4044 353 
Q 4044 -491 3511 -936 
Q 2978 -1381 1966 -1381 
Q 1638 -1381 1331 -1331 
Q 1025 -1281 716 -1178 
L 716 -306 
Q 1009 -475 1290 -558 
Q 1572 -641 1856 -641 
Q 2406 -641 2662 -400 
Q 2919 -159 2919 353 
L 2919 594 
z
M 2181 2772 
Q 1834 2772 1640 2515 
Q 1447 2259 1447 1791 
Q 1447 1309 1634 1061 
Q 1822 813 2181 813 
Q 2531 813 2725 1069 
Q 2919 1325 2919 1791 
Q 2919 2259 2725 2515 
Q 2531 2772 2181 2772 
z
" transform="scale(0.015625)"/>
      <path id="DejaVuSans-Bold-68" d="M 4056 2131 
L 4056 0 
L 2931 0 
L 2931 347 
L 2931 1625 
Q 2931 2084 2911 2256 
Q 2891 2428 2841 2509 
Q 2775 2619 2662 2680 
Q 2550 2741 2406 2741 
Q 2056 2741 1856 2470 
Q 1656 2200 1656 1722 
L 1656 0 
L 538 0 
L 538 4863 
L 1656 4863 
L 1656 2988 
Q 1909 3294 2193 3439 
Q 2478 3584 2822 3584 
Q 3428 3584 3742 3212 
Q 4056 2841 4056 2131 
z
" transform="scale(0.015625)"/>
      <path id="DejaVuSans-Bold-74" d="M 1759 4494 
L 1759 3500 
L 2913 3500 
L 2913 2700 
L 1759 2700 
L 1759 1216 
Q 1759 972 1856 886 
Q 1953 800 2241 800 
L 2816 800 
L 2816 0 
L 1856 0 
Q 1194 0 917 276 
Q 641 553 641 1216 
L 641 2700 
L 84 2700 
L 84 3500 
L 641 3500 
L 641 4494 
L 1759 4494 
z
" transform="scale(0.015625)"/>
      <path id="DejaVuSans-Bold-20" transform="scale(0.015625)"/>
      <path id="DejaVuSans-Bold-41" d="M 3419 850 
L 1538 850 
L 1241 0 
L 31 0 
L 1759 4666 
L 3194 4666 
L 4922 0 
L 3713 0 
L 3419 850 
z
M 1838 1716 
L 3116 1716 
L 2478 3572 
L 1838 1716 
z
" transform="scale(0.015625)"/>
      <path id="DejaVuSans-Bold-6d" d="M 3781 2919 
Q 3994 3244 4286 3414 
Q 4578 3584 4928 3584 
Q 5531 3584 5847 3212 
Q 6163 2841 6163 2131 
L 6163 0 
L 5038 0 
L 5038 1825 
Q 5041 1866 5042 1909 
Q 5044 1953 5044 2034 
Q 5044 2406 4934 2573 
Q 4825 2741 4581 2741 
Q 4263 2741 4089 2478 
Q 3916 2216 3909 1719 
L 3909 0 
L 2784 0 
L 2784 1825 
Q 2784 2406 2684 2573 
Q 2584 2741 2328 2741 
Q 2006 2741 1831 2477 
Q 1656 2213 1656 1722 
L 1656 0 
L 531 0 
L 531 3500 
L 1656 3500 
L 1656 2988 
Q 1863 3284 2130 3434 
Q 2397 3584 2719 3584 
Q 3081 3584 3359 3409 
Q 3638 3234 3781 2919 
z
" transform="scale(0.015625)"/>
     </defs>
     <use xlink:href="#DejaVuSans-Bold-52"/>
     <use xlink:href="#DejaVuSans-Bold-69" transform="translate(77.001953 0)"/>
     <use xlink:href="#DejaVuSans-Bold-67" transform="translate(111.279297 0)"/>
     <use xlink:href="#DejaVuSans-Bold-68" transform="translate(182.861328 0)"/>
     <use xlink:href="#DejaVuSans-Bold-74" transform="translate(254.052734 0)"/>
     <use xlink:href="#DejaVuSans-Bold-20" transform="translate(301.855469 0)"/>
     <use xlink:href="#DejaVuSans-Bold-41" transform="translate(336.669922 0)"/>
     <use xlink:href="#DejaVuSans-Bold-72" transform="translate(414.0625 0)"/>
     <use xlink:href="#DejaVuSans-Bold-6d" transform="translate(463.378906 0)"/>
    </g>
   </g>
   <g id="text_5">
    <!-- Left Arm -->
    <g style="fill: #3498db" transform="translate(337.922698 245.727412) scale(0.12 -0.12)">
     <defs>
      <path id="DejaVuSans-Bold-4c" d="M 588 4666 
L 1791 4666 
L 1791 909 
L 3903 909 
L 3903 0 
L 588 0 
L 588 4666 
z
" transform="scale(0.015625)"/>
      <path id="DejaVuSans-Bold-66" d="M 2841 4863 
L 2841 4128 
L 2222 4128 
Q 1984 4128 1890 4042 
Q 1797 3956 1797 3744 
L 1797 3500 
L 2753 3500 
L 2753 2700 
L 1797 2700 
L 1797 0 
L 678 0 
L 678 2700 
L 122 2700 
L 122 3500 
L 678 3500 
L 678 3744 
Q 678 4316 997 4589 
Q 1316 4863 1984 4863 
L 2841 4863 
z
" transform="scale(0.015625)"/>
     </defs>
     <use xlink:href="#DejaVuSans-Bold-4c"/>
     <use xlink:href="#DejaVuSans-Bold-65" transform="translate(63.720703 0)"/>
     <use xlink:href="#DejaVuSans-Bold-66" transform="translate(131.542969 0)"/>
     <use xlink:href="#DejaVuSans-Bold-74" transform="translate(175.048828 0)"/>
     <use xlink:href="#DejaVuSans-Bold-20" transform="translate(222.851562 0)"/>
     <use xlink:href="#DejaVuSans-Bold-41" transform="translate(257.666016 0)"/>
     <use xlink:href="#DejaVuSans-Bold-72" transform="translate(335.058594 0)"/>
     <use xlink:href="#DejaVuSans-Bold-6d" transform="translate(384.375 0)"/>
    </g>
   </g>
   <g id="text_6">
    <!-- Left Leg -->
    <g style="fill: #9b59b6" transform="translate(37.780813 394.522289) scale(0.12 -0.12)">
     <use xlink:href="#DejaVuSans-Bold-4c"/>
     <use xlink:href="#DejaVuSans-Bold-65" transform="translate(63.720703 0)"/>
     <use xlink:href="#DejaVuSans-Bold-66" transform="translate(131.542969 0)"/>
     <use xlink:href="#DejaVuSans-Bold-74" transform="translate(175.048828 0)"/>
     <use xlink:href="#DejaVuSans-Bold-20" transform="translate(222.851562 0)"/>
     <use xlink:href="#DejaVuSans-Bold-4c" transform="translate(257.666016 0)"/>
     <use xlink:href="#DejaVuSans-Bold-65" transform="translate(321.386719 0)"/>
     <use xlink:href="#DejaVuSans-Bold-67" transform="translate(389.208984 0)"/>
    </g>
   </g>
   <g id="text_7">
    <!-- Right Leg -->
    <g style="fill: #fd79a8" transform="translate(304.564186 385.145852) scale(0.12 -0.12)">
     <use xlink:href="#DejaVuSans-Bold-52"/>
     <use xlink:href="#DejaVuSans-Bold-69" transform="translate(77.001953 0)"/>
     <use xlink:href="#DejaVuSans-Bold-67" transform="translate(111.279297 0)"/>
     <use xlink:href="#DejaVuSans-Bold-68" transform="translate(182.861328 0)"/>
     <use xlink:href="#DejaVuSans-Bold-74" transform="translate(254.052734 0)"/>
     <use xlink:href="#DejaVuSans-Bold-20" transform="translate(301.855469 0)"/>
     <use xlink:href="#DejaVuSans-Bold-4c" transform="translate(336.669922 0)"/>
     <use xlink:href="#DejaVuSans-Bold-65" transform="translate(400.390625 0)"/>
     <use xlink:href="#DejaVuSans-Bold-67" transform="translate(468.212891 0)"/>
    </g>
   </g>
   <g id="legend_1">
    <g id="patch_10">
     <path d="M 311.105422 127.175625 
L 401.33636 127.175625 
Q 403.53636 127.175625 403.53636 124.975625 
L 403.53636 14.9 
Q 403.53636 12.7 401.33636 12.7 
L 311.105422 12.7 
Q 308.905422 12.7 308.905422 14.9 
L 308.905422 124.975625 
Q 308.905422 127.175625 311.105422 127.175625 
z
" style="fill: #ffffff; opacity: 0.95; stroke: #444444; stroke-width: 0.8; stroke-linejoin: miter"/>
    </g>
    <g id="patch_11">
     <path d="M 317.705422 30.243281 
L 330.905422 30.243281 
L 330.905422 21.828281 
L 317.705422 21.828281 
z
" style="fill: #e74c3c; opacity: 0.6"/>
    </g>
    <g id="text_8">
     <!-- Head -->
     <g transform="translate(339.705422 29.858281) scale(0.11 -0.11)">
      <defs>
       <path id="DejaVuSans-48" d="M 628 4666 
L 1259 4666 
L 1259 2753 
L 3553 2753 
L 3553 4666 
L 4184 4666 
L 4184 0 
L 3553 0 
L 3553 2222 
L 1259 2222 
L 1259 0 
L 628 0 
L 628 4666 
z
" transform="scale(0.015625)"/>
       <path id="DejaVuSans-65" d="M 3597 1894 
L 3597 1613 
L 953 1613 
Q 991 1019 1311 708 
Q 1631 397 2203 397 
Q 2534 397 2845 478 
Q 3156 559 3463 722 
L 3463 178 
Q 3153 47 2828 -22 
Q 2503 -91 2169 -91 
Q 1331 -91 842 396 
Q 353 884 353 1716 
Q 353 2575 817 3079 
Q 1281 3584 2069 3584 
Q 2775 3584 3186 3129 
Q 3597 2675 3597 1894 
z
M 3022 2063 
Q 3016 2534 2758 2815 
Q 2500 3097 2075 3097 
Q 1594 3097 1305 2825 
Q 1016 2553 972 2059 
L 3022 2063 
z
" transform="scale(0.015625)"/>
       <path id="DejaVuSans-61" d="M 2194 1759 
Q 1497 1759 1228 1600 
Q 959 1441 959 1056 
Q 959 750 1161 570 
Q 1363 391 1709 391 
Q 2188 391 2477 730 
Q 2766 1069 2766 1631 
L 2766 1759 
L 2194 1759 
z
M 3341 1997 
L 3341 0 
L 2766 0 
L 2766 531 
Q 2569 213 2275 61 
Q 1981 -91 1556 -91 
Q 1019 -91 701 211 
Q 384 513 384 1019 
Q 384 1609 779 1909 
Q 1175 2209 1959 2209 
L 2766 2209 
L 2766 2266 
Q 2766 2663 2505 2880 
Q 2244 3097 1772 3097 
Q 1472 3097 1187 3025 
Q 903 2953 641 2809 
L 641 3341 
Q 956 3463 1253 3523 
Q 1550 3584 1831 3584 
Q 2591 3584 2966 3190 
Q 3341 2797 3341 1997 
z
" transform="scale(0.015625)"/>
       <path id="DejaVuSans-64" d="M 2906 2969 
L 2906 4863 
L 3481 4863 
L 3481 0 
L 2906 0 
L 2906 525 
Q 2725 213 2448 61 
Q 2172 -91 1784 -91 
Q 1150 -91 751 415 
Q 353 922 353 1747 
Q 353 2572 751 3078 
Q 1150 3584 1784 3584 
Q 2172 3584 2448 3432 
Q 2725 3281 2906 2969 
z
M 947 1747 
Q 947 1113 1208 752 
Q 1469 391 1925 391 
Q 2381 391 2643 752 
Q 2906 1113 2906 1747 
Q 2906 2381 2643 2742 
Q 2381 3103 1925 3103 
Q 1469 3103 1208 2742 
Q 947 2381 947 1747 
z
" transform="scale(0.015625)"/>
      </defs>
      <use xlink:href="#DejaVuSans-48"/>
      <use xlink:href="#DejaVuSans-65" transform="translate(75.195312 0)"/>
      <use xlink:href="#DejaVuSans-61" transform="translate(136.71875 0)"/>
      <use xlink:href="#DejaVuSans-64" transform="translate(197.998047 0)"/>
     </g>
    </g>
    <g id="patch_12">
     <path d="M 317.705422 47.489219 
L 330.905422 47.489219 
L 330.905422 39.074219 
L 317.705422 39.074219 
z
" style="fill: #2ecc71; opacity: 0.6"/>
    </g>
    <g id="text_9">
     <!-- Trunk -->
     <g transform="translate(339.705422 47.104219) scale(0.11 -0.11)">
      <defs>
       <path id="DejaVuSans-54" d="M -19 4666 
L 3928 4666 
L 3928 4134 
L 2272 4134 
L 2272 0 
L 1638 0 
L 1638 4134 
L -19 4134 
L -19 4666 
z
" transform="scale(0.015625)"/>
       <path id="DejaVuSans-72" d="M 2631 2963 
Q 2534 3019 2420 3045 
Q 2306 3072 2169 3072 
Q 1681 3072 1420 2755 
Q 1159 2438 1159 1844 
L 1159 0 
L 581 0 
L 581 3500 
L 1159 3500 
L 1159 2956 
Q 1341 3275 1631 3429 
Q 1922 3584 2338 3584 
Q 2397 3584 2469 3576 
Q 2541 3569 2628 3553 
L 2631 2963 
z
" transform="scale(0.015625)"/>
       <path id="DejaVuSans-75" d="M 544 1381 
L 544 3500 
L 1119 3500 
L 1119 1403 
Q 1119 906 1312 657 
Q 1506 409 1894 409 
Q 2359 409 2629 706 
Q 2900 1003 2900 1516 
L 2900 3500 
L 3475 3500 
L 3475 0 
L 2900 0 
L 2900 538 
Q 2691 219 2414 64 
Q 2138 -91 1772 -91 
Q 1169 -91 856 284 
Q 544 659 544 1381 
z
M 1991 3584 
L 1991 3584 
z
" transform="scale(0.015625)"/>
       <path id="DejaVuSans-6e" d="M 3513 2113 
L 3513 0 
L 2938 0 
L 2938 2094 
Q 2938 2591 2744 2837 
Q 2550 3084 2163 3084 
Q 1697 3084 1428 2787 
Q 1159 2491 1159 1978 
L 1159 0 
L 581 0 
L 581 3500 
L 1159 3500 
L 1159 2956 
Q 1366 3272 1645 3428 
Q 1925 3584 2291 3584 
Q 2894 3584 3203 3211 
Q 3513 2838 3513 2113 
z
" transform="scale(0.015625)"/>
       <path id="DejaVuSans-6b" d="M 581 4863 
L 1159 4863 
L 1159 1991 
L 2875 3500 
L 3609 3500 
L 1753 1863 
L 3688 0 
L 2938 0 
L 1159 1709 
L 1159 0 
L 581 0 
L 581 4863 
z
" transform="scale(0.015625)"/>
      </defs>
      <use xlink:href="#DejaVuSans-54"/>
      <use xlink:href="#DejaVuSans-72" transform="translate(46.333984 0)"/>
      <use xlink:href="#DejaVuSans-75" transform="translate(87.447266 0)"/>
      <use xlink:href="#DejaVuSans-6e" transform="translate(150.826172 0)"/>
      <use xlink:href="#DejaVuSans-6b" transform="translate(214.205078 0)"/>
     </g>
    </g>
    <g id="patch_13">
     <path d="M 317.705422 64.735156 
L 330.905422 64.735156 
L 330.905422 56.320156 
L 317.705422 56.320156 
z
" style="fill: #3498db; opacity: 0.6"/>
    </g>
    <g id="text_10">
     <!-- Left Arm -->
     <g transform="translate(339.705422 64.350156) scale(0.11 -0.11)">
      <defs>
       <path id="DejaVuSans-4c" d="M 628 4666 
L 1259 4666 
L 1259 531 
L 3531 531 
L 3531 0 
L 628 0 
L 628 4666 
z
" transform="scale(0.015625)"/>
       <path id="DejaVuSans-66" d="M 2375 4863 
L 2375 4384 
L 1825 4384 
Q 1516 4384 1395 4259 
Q 1275 4134 1275 3809 
L 1275 3500 
L 2222 3500 
L 2222 3053 
L 1275 3053 
L 1275 0 
L 697 0 
L 697 3053 
L 147 3053 
L 147 3500 
L 697 3500 
L 697 3744 
Q 697 4328 969 4595 
Q 1241 4863 1831 4863 
L 2375 4863 
z
" transform="scale(0.015625)"/>
       <path id="DejaVuSans-74" d="M 1172 4494 
L 1172 3500 
L 2356 3500 
L 2356 3053 
L 1172 3053 
L 1172 1153 
Q 1172 725 1289 603 
Q 1406 481 1766 481 
L 2356 481 
L 2356 0 
L 1766 0 
Q 1100 0 847 248 
Q 594 497 594 1153 
L 594 3053 
L 172 3053 
L 172 3500 
L 594 3500 
L 594 4494 
L 1172 4494 
z
" transform="scale(0.015625)"/>
       <path id="DejaVuSans-20" transform="scale(0.015625)"/>
       <path id="DejaVuSans-41" d="M 2188 4044 
L 1331 1722 
L 3047 1722 
L 2188 4044 
z
M 1831 4666 
L 2547 4666 
L 4325 0 
L 3669 0 
L 3244 1197 
L 1141 1197 
L 716 0 
L 50 0 
L 1831 4666 
z
" transform="scale(0.015625)"/>
       <path id="DejaVuSans-6d" d="M 3328 2828 
Q 3544 3216 3844 3400 
Q 4144 3584 4550 3584 
Q 5097 3584 5394 3201 
Q 5691 2819 5691 2113 
L 5691 0 
L 5113 0 
L 5113 2094 
Q 5113 2597 4934 2840 
Q 4756 3084 4391 3084 
Q 3944 3084 3684 2787 
Q 3425 2491 3425 1978 
L 3425 0 
L 2847 0 
L 2847 2094 
Q 2847 2600 2669 2842 
Q 2491 3084 2119 3084 
Q 1678 3084 1418 2786 
Q 1159 2488 1159 1978 
L 1159 0 
L 581 0 
L 581 3500 
L 1159 3500 
L 1159 2956 
Q 1356 3278 1631 3431 
Q 1906 3584 2284 3584 
Q 2666 3584 2933 3390 
Q 3200 3197 3328 2828 
z
" transform="scale(0.015625)"/>
      </defs>
      <use xlink:href="#DejaVuSans-4c"/>
      <use xlink:href="#DejaVuSans-65" transform="translate(53.962891 0)"/>
      <use xlink:href="#DejaVuSans-66" transform="translate(115.486328 0)"/>
      <use xlink:href="#DejaVuSans-74" transform="translate(148.941406 0)"/>
      <use xlink:href="#DejaVuSans-20" transform="translate(188.150391 0)"/>
      <use xlink:href="#DejaVuSans-41" transform="translate(219.9375 0)"/>
      <use xlink:href="#DejaVuSans-72" transform="translate(288.345703 0)"/>
      <use xlink:href="#DejaVuSans-6d" transform="translate(327.708984 0)"/>
     </g>
    </g>
    <g id="patch_14">
     <path d="M 317.705422 81.981094 
L 330.905422 81.981094 
L 330.905422 73.566094 
L 317.705422 73.566094 
z
" style="fill: #1a253a; opacity: 0.6"/>
    </g>
    <g id="text_11">
     <!-- Right Arm -->
     <g transform="translate(339.705422 81.596094) scale(0.11 -0.11)">
      <defs>
       <path id="DejaVuSans-52" d="M 2841 2188 
Q 3044 2119 3236 1894 
Q 3428 1669 3622 1275 
L 4263 0 
L 3584 0 
L 2988 1197 
Q 2756 1666 2539 1819 
Q 2322 1972 1947 1972 
L 1259 1972 
L 1259 0 
L 628 0 
L 628 4666 
L 2053 4666 
Q 2853 4666 3247 4331 
Q 3641 3997 3641 3322 
Q 3641 2881 3436 2590 
Q 3231 2300 2841 2188 
z
M 1259 4147 
L 1259 2491 
L 2053 2491 
Q 2509 2491 2742 2702 
Q 2975 2913 2975 3322 
Q 2975 3731 2742 3939 
Q 2509 4147 2053 4147 
L 1259 4147 
z
" transform="scale(0.015625)"/>
       <path id="DejaVuSans-69" d="M 603 3500 
L 1178 3500 
L 1178 0 
L 603 0 
L 603 3500 
z
M 603 4863 
L 1178 4863 
L 1178 4134 
L 603 4134 
L 603 4863 
z
" transform="scale(0.015625)"/>
       <path id="DejaVuSans-67" d="M 2906 1791 
Q 2906 2416 2648 2759 
Q 2391 3103 1925 3103 
Q 1463 3103 1205 2759 
Q 947 2416 947 1791 
Q 947 1169 1205 825 
Q 1463 481 1925 481 
Q 2391 481 2648 825 
Q 2906 1169 2906 1791 
z
M 3481 434 
Q 3481 -459 3084 -895 
Q 2688 -1331 1869 -1331 
Q 1566 -1331 1297 -1286 
Q 1028 -1241 775 -1147 
L 775 -588 
Q 1028 -725 1275 -790 
Q 1522 -856 1778 -856 
Q 2344 -856 2625 -561 
Q 2906 -266 2906 331 
L 2906 616 
Q 2728 306 2450 153 
Q 2172 0 1784 0 
Q 1141 0 747 490 
Q 353 981 353 1791 
Q 353 2603 747 3093 
Q 1141 3584 1784 3584 
Q 2172 3584 2450 3431 
Q 2728 3278 2906 2969 
L 2906 3500 
L 3481 3500 
L 3481 434 
z
" transform="scale(0.015625)"/>
       <path id="DejaVuSans-68" d="M 3513 2113 
L 3513 0 
L 2938 0 
L 2938 2094 
Q 2938 2591 2744 2837 
Q 2550 3084 2163 3084 
Q 1697 3084 1428 2787 
Q 1159 2491 1159 1978 
L 1159 0 
L 581 0 
L 581 4863 
L 1159 4863 
L 1159 2956 
Q 1366 3272 1645 3428 
Q 1925 3584 2291 3584 
Q 2894 3584 3203 3211 
Q 3513 2838 3513 2113 
z
" transform="scale(0.015625)"/>
      </defs>
      <use xlink:href="#DejaVuSans-52"/>
      <use xlink:href="#DejaVuSans-69" transform="translate(69.482422 0)"/>
      <use xlink:href="#DejaVuSans-67" transform="translate(97.265625 0)"/>
      <use xlink:href="#DejaVuSans-68" transform="translate(160.742188 0)"/>
      <use xlink:href="#DejaVuSans-74" transform="translate(224.121094 0)"/>
      <use xlink:href="#DejaVuSans-20" transform="translate(263.330078 0)"/>
      <use xlink:href="#DejaVuSans-41" transform="translate(295.117188 0)"/>
      <use xlink:href="#DejaVuSans-72" transform="translate(363.525391 0)"/>
      <use xlink:href="#DejaVuSans-6d" transform="translate(402.888672 0)"/>
     </g>
    </g>
    <g id="patch_15">
     <path d="M 317.705422 99.227031 
L 330.905422 99.227031 
L 330.905422 90.812031 
L 317.705422 90.812031 
z
" style="fill: #9b59b6; opacity: 0.6"/>
    </g>
    <g id="text_12">
     <!-- Left Leg -->
     <g transform="translate(339.705422 98.842031) scale(0.11 -0.11)">
      <use xlink:href="#DejaVuSans-4c"/>
      <use xlink:href="#DejaVuSans-65" transform="translate(53.962891 0)"/>
      <use xlink:href="#DejaVuSans-66" transform="translate(115.486328 0)"/>
      <use xlink:href="#DejaVuSans-74" transform="translate(148.941406 0)"/>
      <use xlink:href="#DejaVuSans-20" transform="translate(188.150391 0)"/>
      <use xlink:href="#DejaVuSans-4c" transform="translate(219.9375 0)"/>
      <use xlink:href="#DejaVuSans-65" transform="translate(273.900391 0)"/>
      <use xlink:href="#DejaVuSans-67" transform="translate(335.423828 0)"/>
     </g>
    </g>
    <g id="patch_16">
     <path d="M 317.705422 116.472969 
L 330.905422 116.472969 
L 330.905422 108.057969 
L 317.705422 108.057969 
z
" style="fill: #fd79a8; opacity: 0.6"/>
    </g>
    <g id="text_13">
     <!-- Right Leg -->
     <g transform="translate(339.705422 116.087969) scale(0.11 -0.11)">
      <use xlink:href="#DejaVuSans-52"/>
      <use xlink:href="#DejaVuSans-69" transform="translate(69.482422 0)"/>
      <use xlink:href="#DejaVuSans-67" transform="translate(97.265625 0)"/>
      <use xlink:href="#DejaVuSans-68" transform="translate(160.742188 0)"/>
      <use xlink:href="#DejaVuSans-74" transform="translate(224.121094 0)"/>
      <use xlink:href="#DejaVuSans-20" transform="translate(263.330078 0)"/>
      <use xlink:href="#DejaVuSans-4c" transform="translate(295.117188 0)"/>
      <use xlink:href="#DejaVuSans-65" transform="translate(349.080078 0)"/>
      <use xlink:href="#DejaVuSans-67" transform="translate(410.603516 0)"/>
     </g>
    </g>
   </g>
  </g>
 </g>
 <defs>
  <clipPath id="p4703ec6f9e">
   <rect x="7.2" y="7.2" width="401.83636" height="554.4"/>
  </clipPath>
 </defs>
</svg>
